<?xml version="1.0" standalone="no"?>
<!DOCTYPE svg PUBLIC "-//W3C//DTD SVG 20010904//EN"
 "http://www.w3.org/TR/2001/REC-SVG-20010904/DTD/svg10.dtd">
<svg version="1.0" xmlns="http://www.w3.org/2000/svg"
 width="717.000000pt" height="717.000000pt" viewBox="0 0 717.000000 717.000000"
 preserveAspectRatio="xMidYMid meet">
<metadata>
Created by potrace 1.14, written by Peter Selinger 2001-2017
</metadata>
<g transform="translate(0.000000,717.000000) scale(0.100000,-0.100000)"
fill="#000000" stroke="none">
<path d="M4001 7040 c-49 -12 -102 -69 -111 -119 l-7 -41 298 0 c297 0 299 0
299 21 0 35 -31 89 -68 117 -35 27 -38 27 -206 29 -94 1 -186 -2 -205 -7z"/>
<path d="M4887 7036 c-50 -19 -67 -34 -88 -81 -37 -80 -56 -75 282 -75 l301 0
-7 33 c-10 47 -39 89 -77 112 -29 17 -54 20 -203 23 -126 1 -180 -1 -208 -12z"/>
<path d="M5790 7039 c-60 -18 -110 -79 -110 -134 l0 -25 295 0 295 0 0 29 c0
33 -33 85 -73 115 -26 19 -43 21 -200 23 -97 1 -187 -2 -207 -8z"/>
<path d="M6695 7040 c-62 -13 -105 -59 -120 -127 l-7 -33 151 0 c147 0 151 1
151 21 0 34 -31 88 -64 113 -36 27 -69 35 -111 26z"/>
<path d="M590 5760 l0 -490 455 0 455 0 0 490 0 490 -455 0 -455 0 0 -490z"/>
<path d="M3670 6228 c-51 -26 -90 -89 -90 -147 0 -49 36 -117 74 -141 33 -20
42 -20 1430 -20 l1397 0 39 38 c96 90 63 248 -58 282 -25 6 -493 10 -1392 10
l-1356 0 -44 -22z"/>
<path d="M1864 6221 c-37 -22 -74 -93 -74 -141 0 -47 34 -111 73 -137 39 -27
104 -30 147 -8 104 54 108 224 8 285 -43 26 -113 26 -154 1z"/>
<path d="M2460 6218 c-93 -64 -93 -211 -1 -274 72 -49 171 -22 211 57 57 110
-13 239 -130 239 -32 0 -57 -7 -80 -22z"/>
<path d="M3050 6214 c-43 -36 -62 -79 -62 -135 0 -58 25 -105 73 -137 49 -34
127 -27 170 14 61 57 74 127 38 200 -27 57 -72 84 -137 84 -40 0 -57 -5 -82
-26z"/>
<path d="M2166 5900 c-132 -87 -80 -300 74 -300 150 0 208 210 81 296 -45 30
-113 32 -155 4z"/>
<path d="M2760 5898 c-95 -66 -94 -219 2 -278 43 -26 113 -26 155 0 39 24 73
87 73 136 0 52 -35 119 -74 144 -46 28 -113 27 -156 -2z"/>
<path d="M1871 5578 c-53 -36 -74 -71 -78 -130 -5 -72 25 -124 89 -156 55 -28
104 -23 149 15 41 35 59 74 59 128 0 92 -53 155 -139 162 -36 4 -53 0 -80 -19z"/>
<path d="M2472 5583 c-18 -9 -44 -35 -57 -58 -45 -76 -28 -169 40 -221 73 -56
177 -27 219 59 64 137 -71 285 -202 220z"/>
<path d="M3064 5581 c-96 -58 -103 -200 -14 -274 46 -39 90 -44 147 -16 63 31
96 91 90 162 -10 113 -132 183 -223 128z"/>
<path d="M3675 5590 c-28 -11 -72 -60 -84 -93 -26 -67 2 -156 60 -198 l34 -24
1375 -3 c1251 -2 1379 -1 1418 14 52 20 89 71 98 134 7 57 -25 124 -75 157
l-34 23 -1386 -1 c-762 0 -1395 -4 -1406 -9z"/>
<path d="M684 4946 c-39 -17 -71 -58 -84 -107 -7 -25 -9 -377 -8 -1031 3 -981
3 -993 24 -1028 33 -57 79 -83 142 -78 43 4 59 11 88 39 19 18 39 49 45 69 6
23 9 378 7 1042 -3 999 -3 1007 -24 1034 -48 64 -126 89 -190 60z"/>
<path d="M1284 4946 c-38 -17 -71 -58 -84 -105 -8 -24 -10 -361 -8 -1038 3
-998 3 -1002 24 -1030 77 -104 205 -96 262 17 l22 44 0 996 0 996 -22 44 c-13
24 -35 52 -49 63 -34 25 -105 31 -145 13z"/>
<path d="M1884 4946 c-17 -8 -44 -31 -60 -52 -25 -32 -29 -46 -29 -100 0 -70
17 -102 75 -141 95 -65 220 17 220 144 0 111 -112 192 -206 149z"/>
<path d="M2472 4943 c-18 -9 -43 -30 -55 -47 l-22 -31 -3 -1023 c-2 -931 -1
-1027 14 -1058 50 -106 202 -111 261 -8 l23 39 0 1014 0 1013 -21 38 c-40 70
-126 98 -197 63z"/>
<path d="M3074 4946 c-39 -17 -71 -58 -84 -107 -7 -25 -9 -377 -8 -1031 3
-981 3 -993 24 -1028 33 -57 79 -83 142 -78 43 4 59 11 88 39 19 18 39 49 45
69 6 23 9 378 7 1042 -3 999 -3 1007 -24 1034 -48 64 -126 89 -190 60z"/>
<path d="M4605 4946 c-240 -38 -446 -147 -635 -336 -102 -102 -170 -194 -243
-330 -203 -377 -191 -912 29 -1278 181 -301 443 -509 741 -589 89 -24 115 -27
283 -27 169 0 193 2 283 26 300 82 559 287 740 588 200 333 232 792 81 1174
-37 95 -42 104 -139 251 -117 177 -339 366 -522 443 -196 83 -411 110 -618 78z
m288 -811 c79 -24 145 -66 203 -128 83 -89 121 -178 131 -308 15 -193 -94
-387 -265 -471 -63 -31 -72 -33 -182 -33 -110 0 -118 1 -183 33 -197 97 -307
340 -251 556 46 177 167 308 323 352 63 17 166 17 224 -1z"/>
<path d="M1864 4291 c-17 -11 -41 -39 -53 -63 -20 -43 -21 -57 -21 -404 0
-353 1 -360 23 -399 45 -82 150 -105 218 -48 59 50 59 48 59 455 0 355 -1 375
-20 406 -42 68 -139 94 -206 53z"/>
<path d="M1884 3016 c-17 -8 -44 -31 -60 -52 -25 -32 -29 -46 -29 -100 0 -70
17 -102 75 -141 95 -65 220 17 220 144 0 111 -112 192 -206 149z"/>
<path d="M3653 2039 c-38 -24 -73 -92 -73 -140 0 -58 39 -121 90 -146 l44 -23
1356 0 c899 0 1367 4 1392 10 77 22 127 107 112 194 -5 30 -18 53 -49 84 l-42
42 -1399 0 c-1392 0 -1399 0 -1431 -21z"/>
<path d="M3660 1398 c-58 -40 -75 -72 -75 -143 0 -69 15 -99 69 -139 27 -21
31 -21 1414 -24 1305 -2 1389 -1 1422 15 44 23 77 72 86 129 8 56 -26 129 -75
161 l-34 23 -1387 0 -1387 0 -33 -22z"/>
<path d="M0 290 l0 -160 3585 0 3585 0 0 160 0 160 -3585 0 -3585 0 0 -160z"/>
</g>
</svg>
